<?xml version="1.0" encoding="utf-8"?>
<!-- Generator: Adobe Illustrator 23.0.2, SVG Export Plug-In . SVG Version: 6.00 Build 0)  -->
<svg version="1.1" id="Layer_1" focusable="false" xmlns="http://www.w3.org/2000/svg" xmlns:xlink="http://www.w3.org/1999/xlink"
	 x="0px" y="0px" viewBox="0 0 700 700" style="enable-background:new 0 0 700 700;" xml:space="preserve">
<style type="text/css">
	.st0{fill:none;stroke:#000000;stroke-width:20;stroke-miterlimit:10;}
</style>
<circle class="st0" cx="350" cy="350" r="277"/>
<path d="M303.7,443.3h12.2v-88h-12.2c-6.7,0-12.2-5.5-12.2-12.2V314c0-6.7,5.5-12.2,12.2-12.2h68.3c6.7,0,12.2,5.5,12.2,12.2v129.3
	h12.2c6.7,0,12.2,5.5,12.2,12.2v29.1c0,6.7-5.5,12.2-12.2,12.2h-92.6c-6.7,0-12.2-5.5-12.2-12.2v-29.1
	C291.5,448.8,297,443.3,303.7,443.3z M350,184.8c-24.3,0-43.9,19.6-43.9,43.9s19.6,43.9,43.9,43.9s43.9-19.6,43.9-43.9
	S374.3,184.8,350,184.8z"/>
</svg>
